<svg width="80" height="80" viewBox="0 0 80 80" fill="none" xmlns="http://www.w3.org/2000/svg">
    <circle cx="40" cy="30" r="15" fill="#6C63FF" opacity="0.1"/>
    <circle cx="25" cy="50" r="12" fill="#6C63FF" opacity="0.1"/>
    <circle cx="55" cy="50" r="12" fill="#6C63FF" opacity="0.1"/>
    <path d="M40 30m-8 0a8 8 0 1 0 16 0a8 8 0 1 0 -16 0" stroke="#6C63FF" stroke-width="2"/>
    <path d="M25 50m-6 0a6 6 0 1 0 12 0a6 6 0 1 0 -12 0" stroke="#6C63FF" stroke-width="2"/>
    <path d="M55 50m-6 0a6 6 0 1 0 12 0a6 6 0 1 0 -12 0" stroke="#6C63FF" stroke-width="2"/>
</svg> 